<?xml version="1.0" encoding="UTF-8"?>
<svg width="1024" height="1024" viewBox="0 0 1024 1024" xmlns="http://www.w3.org/2000/svg">
  <defs>
    <linearGradient id="cover" x1="220" y1="80" x2="780" y2="940" gradientUnits="userSpaceOnUse">
      <stop offset="0" stop-color="#ff867c"/>
      <stop offset=".42" stop-color="#c01c28"/>
      <stop offset="1" stop-color="#5e0711"/>
    </linearGradient>
    <linearGradient id="paper" x1="326" y1="144" x2="704" y2="860" gradientUnits="userSpaceOnUse">
      <stop offset="0" stop-color="#fffaf0"/>
      <stop offset="1" stop-color="#e5cfb4"/>
    </linearGradient>
    <linearGradient id="gold" x1="600" y1="150" x2="765" y2="520">
      <stop offset="0" stop-color="#ffe28a"/>
      <stop offset="1" stop-color="#d59b2d"/>
    </linearGradient>
    <filter id="shadow" x="-20%" y="-20%" width="150%" height="150%">
      <feDropShadow dx="0" dy="42" stdDeviation="38" flood-color="#000" flood-opacity=".34"/>
    </filter>
  </defs>
  <rect x="144" y="92" width="648" height="852" rx="112" fill="#3b050b" opacity=".25" filter="url(#shadow)"/>
  <rect x="184" y="64" width="656" height="864" rx="112" fill="url(#cover)" filter="url(#shadow)"/>
  <path d="M292 112h432c64 0 116 52 116 116v584c0 64-52 116-116 116H292c-64 0-116-52-116-116V228c0-64 52-116 116-116Z" fill="url(#cover)"/>
  <path d="M332 156h336c50 0 90 40 90 90v564c0 36-30 66-66 66H332c-56 0-100-44-100-100V256c0-56 44-100 100-100Z" fill="url(#paper)" opacity=".98"/>
  <path d="M332 156h48v720h-48c-56 0-100-44-100-100V256c0-56 44-100 100-100Z" fill="#d7bea0" opacity=".55"/>
  <rect x="412" y="256" width="224" height="36" rx="18" fill="#a51d2d" opacity=".92"/>
  <rect x="412" y="344" width="260" height="28" rx="14" fill="#a51d2d" opacity=".36"/>
  <rect x="412" y="420" width="204" height="28" rx="14" fill="#a51d2d" opacity=".28"/>
  <rect x="412" y="496" width="244" height="28" rx="14" fill="#a51d2d" opacity=".24"/>
  <path d="M628 156v312l68-56 68 56V156Z" fill="url(#gold)"/>
  <path d="M628 156h136v36H628Z" fill="#fff7d7" opacity=".24"/>
  <circle cx="748" cy="764" r="124" fill="#2ec27e" stroke="#fffaf0" stroke-width="32"/>
  <path d="M692 764l40 42 84-100" fill="none" stroke="#fff" stroke-width="36" stroke-linecap="round" stroke-linejoin="round"/>
</svg>
